<svg width="32" height="32" viewBox="0 0 32 32" fill="none" xmlns="http://www.w3.org/2000/svg">
<rect width="32" height="32" fill="url(#paint0_linear_12042_31)"/>
<path d="M15.8524 25.8668C14.7803 25.8668 13.8503 25.702 13.0626 25.3726C12.275 25.0432 11.6732 24.4612 11.2575 23.6266C10.8637 22.792 10.6667 21.617 10.6667 20.1016V18.9815C11.1919 18.9815 11.7279 18.9815 12.275 18.9815C12.822 18.9815 13.358 18.9815 13.8832 18.9815V20.3651C13.8832 21.2876 13.9707 22.0014 14.1457 22.5065C14.3208 23.0116 14.5614 23.363 14.8678 23.5607C15.1741 23.7364 15.5242 23.8242 15.918 23.8242C16.5526 23.8242 17.0558 23.6156 17.4278 23.1983C17.8216 22.7591 18.0185 21.9464 18.0185 20.7605C18.0185 19.882 17.8873 19.2231 17.6247 18.7838C17.3621 18.3446 16.9464 17.9932 16.3775 17.7296C15.8305 17.4441 15.1194 17.1257 14.2442 16.7743C13.5221 16.4448 12.8985 16.0605 12.3734 15.6212C11.8483 15.182 11.4544 14.6219 11.1919 13.9411C10.9293 13.2603 10.798 12.4147 10.798 11.4044C10.798 10.1745 10.9512 9.17523 11.2575 8.40654C11.5857 7.61589 12.1327 7.04487 12.8985 6.69347C13.6644 6.3201 14.6927 6.13342 15.9837 6.13342C17.6466 6.13342 18.9156 6.51777 19.7909 7.28645C20.6661 8.03318 21.1037 9.13131 21.1037 10.5808V12.854C20.6004 12.854 20.0862 12.854 19.5611 12.854C19.0579 12.854 18.5437 12.854 18.0185 12.854V11.5033C18.0185 10.493 17.8544 9.76822 17.5262 9.32897C17.2199 8.86776 16.7167 8.63715 16.0165 8.63715C15.2944 8.63715 14.7693 8.85678 14.4411 9.29603C14.1348 9.71331 13.9816 10.3832 13.9816 11.3056C13.9816 12.0962 14.1348 12.7112 14.4411 13.1505C14.7474 13.5677 15.1413 13.8972 15.6226 14.1388C16.1259 14.3804 16.6401 14.6 17.1652 14.7976C18.1498 15.171 18.9485 15.5553 19.5611 15.9507C20.1738 16.346 20.6223 16.8731 20.9067 17.532C21.1912 18.1909 21.3334 19.1243 21.3334 20.3322C21.3334 21.7158 21.1037 22.814 20.6442 23.6266C20.2066 24.4172 19.572 24.9883 18.7406 25.3397C17.931 25.6911 16.9683 25.8668 15.8524 25.8668Z" fill="white"/>
<defs>
<linearGradient id="paint0_linear_12042_31" x1="6.32768" y1="9.62149e-06" x2="33.8513" y2="3.40621" gradientUnits="userSpaceOnUse">
<stop stop-color="#ED0233"/>
<stop offset="1" stop-color="#003EB7"/>
</linearGradient>
</defs>
</svg>
